<svg width="748" height="189" viewBox="0 0 748 189" fill="none" xmlns="http://www.w3.org/2000/svg">
<g filter="url(#filter0_g_3_290)">
<path d="M81.2871 124.33H109.614V110.126H132.187V183.598H109.614V146.902H106.145V157.556H83.5723V146.902H81.2871V183.598H58.7148V110.126H81.2871V124.33ZM208.312 131.514H195.291V145.718H183.453V183.597H160.882V146.901H149.044V132.697H136.023V110.125H158.596V124.33H171.616V136.167H172.719V123.146H185.739V108.941H208.312V131.514ZM322.132 132.697H271.232V161.024H299.56V157.555H281.805V134.983H322.132V183.597H264.049V170.576H248.66V124.329H265.232V110.125H322.132V132.697ZM379.95 132.697H365.745V161.024H379.95V183.597H328.969V161.024H343.173V132.697H328.969V110.125H379.95V132.697ZM454.259 132.697H428.217V183.597H405.646V132.697H380.787V110.125H454.259V132.697ZM484.669 134.983H512.996V110.125H535.568V183.597H512.996V157.555H484.669V183.597H462.097V110.125H484.669V134.983ZM561.794 161.024H590.121V110.125H612.693V170.576H596.121V183.597H555.794V170.576H539.222V110.125H561.794V161.024ZM674.431 124.329H691.003V169.393H674.431V183.597H617.531V110.125H674.431V124.329ZM640.104 161.024H668.431V157.555H640.104V161.024ZM640.104 134.983H668.431V132.697H640.104V134.983ZM32.2031 47.6953H35.6729V37.042H58.2451V47.6953H60.5303V11H83.1025V84.4717H60.5303V70.2676H32.2031V84.4717H9.63086V11H32.2031V47.6953ZM159.411 33.5723H108.512V35.8584H142.839V58.4297H108.512V61.8994H159.411V84.4717H85.9395V11H159.411V33.5723ZM190.821 61.8994H241.721V84.4717H168.249V11H190.821V61.8994ZM299.457 22.8369H316.029V45.4092H293.457V33.5723H265.13V61.8994H293.457V50.0625H316.029V72.6348H299.457V84.4717H259.13V70.2676H242.558V25.2041H259.13V11H299.457V22.8369ZM377.767 25.2041H394.339V70.2676H377.767V84.4717H337.439V70.2676H320.867V25.2041H337.439V11H377.767V25.2041ZM421.748 25.2041H450.075V11H472.647V84.4717H450.075V47.7764H446.605V58.4297H424.034V47.7764H421.748V84.4717H399.176V11H421.748V25.2041ZM551.956 33.5723H501.057V35.8584H535.384V58.4297H501.057V61.8994H551.956V84.4717H478.484V11H551.956V33.5723ZM663.777 33.5723H637.735V84.4717H615.164V33.5723H590.306V11H663.777V33.5723ZM725.514 25.2041H742.086V70.2676H725.514V84.4717H685.187V70.2676H668.614V25.2041H685.187V11H725.514V25.2041ZM343.439 61.8994H371.767V33.5723H343.439V61.8994ZM691.187 61.8994H719.514V33.5723H691.187V61.8994Z" fill="#551192"/>
</g>
<g filter="url(#filter1_n_3_290)">
<mask id="path-2-outside-1_3_290" maskUnits="userSpaceOnUse" x="51.2803" y="99" width="630" height="74" fill="black">
<rect fill="white" x="51.2803" y="99" width="630" height="74"/>
<path d="M70.5967 117.15H84.582V127.64H90.4102V117.15H104.396V103.165H120.712V169.597H104.396V133.467H95.0713V143.956H78.7549V133.467H70.5967V169.597H54.2803V103.165H70.5967V117.15ZM197.634 118.316H184.813V132.302H173.158V169.597H156.842V133.468H145.188V119.482H132.367V103.165H148.684V117.151H161.504V128.806H168.497V115.985H181.316V102H197.634V118.316ZM310.684 119.481H260.568V153.28H294.367V143.956H276.885V127.64H310.684V169.597H259.403V156.776H244.252V117.15H260.568V103.165H310.684V119.481ZM366.626 119.481H352.64V153.28H366.626V169.597H322.338V153.28H336.323V119.481H322.338V103.165H366.626V119.481ZM444.712 119.481H419.071V169.597H402.755V119.481H378.28V103.165H444.712V119.481ZM472.684 127.64H506.482V103.165H522.799V169.597H506.482V143.956H472.684V169.597H456.367V103.165H472.684V127.64ZM549.604 153.28H583.402V103.165H599.719V156.776H583.402V169.597H549.604V156.776H533.287V103.165H549.604V153.28ZM661.489 117.15H677.806V133.467H661.489V139.295H677.806V155.611H661.489V169.597H611.374V103.165H661.489V117.15ZM627.69 153.28H661.489V143.956H627.69V153.28ZM627.69 127.64H661.489V119.481H627.69V127.64Z"/>
</mask>
<path d="M70.5967 117.15H84.582V127.64H90.4102V117.15H104.396V103.165H120.712V169.597H104.396V133.467H95.0713V143.956H78.7549V133.467H70.5967V169.597H54.2803V103.165H70.5967V117.15ZM197.634 118.316H184.813V132.302H173.158V169.597H156.842V133.468H145.188V119.482H132.367V103.165H148.684V117.151H161.504V128.806H168.497V115.985H181.316V102H197.634V118.316ZM310.684 119.481H260.568V153.28H294.367V143.956H276.885V127.64H310.684V169.597H259.403V156.776H244.252V117.15H260.568V103.165H310.684V119.481ZM366.626 119.481H352.64V153.28H366.626V169.597H322.338V153.28H336.323V119.481H322.338V103.165H366.626V119.481ZM444.712 119.481H419.071V169.597H402.755V119.481H378.28V103.165H444.712V119.481ZM472.684 127.64H506.482V103.165H522.799V169.597H506.482V143.956H472.684V169.597H456.367V103.165H472.684V127.64ZM549.604 153.28H583.402V103.165H599.719V156.776H583.402V169.597H549.604V156.776H533.287V103.165H549.604V153.28ZM661.489 117.15H677.806V133.467H661.489V139.295H677.806V155.611H661.489V169.597H611.374V103.165H661.489V117.15ZM627.69 153.28H661.489V143.956H627.69V153.28ZM627.69 127.64H661.489V119.481H627.69V127.64Z" fill="url(#paint0_linear_3_290)"/>
<path d="M70.5967 117.15H67.5967V120.15H70.5967V117.15ZM84.582 117.15H87.582V114.15H84.582V117.15ZM84.582 127.64H81.582V130.64H84.582V127.64ZM90.4102 127.64V130.64H93.4102V127.64H90.4102ZM90.4102 117.15V114.15H87.4102V117.15H90.4102ZM104.396 117.15V120.15H107.396V117.15H104.396ZM104.396 103.165V100.165H101.396V103.165H104.396ZM120.712 103.165H123.712V100.165H120.712V103.165ZM120.712 169.597V172.597H123.712V169.597H120.712ZM104.396 169.597H101.396V172.597H104.396V169.597ZM104.396 133.467H107.396V130.467H104.396V133.467ZM95.0713 133.467V130.467H92.0713V133.467H95.0713ZM95.0713 143.956V146.956H98.0713V143.956H95.0713ZM78.7549 143.956H75.7549V146.956H78.7549V143.956ZM78.7549 133.467H81.7549V130.467H78.7549V133.467ZM70.5967 133.467V130.467H67.5967V133.467H70.5967ZM70.5967 169.597V172.597H73.5967V169.597H70.5967ZM54.2803 169.597H51.2803V172.597H54.2803V169.597ZM54.2803 103.165V100.165H51.2803V103.165H54.2803ZM70.5967 103.165H73.5967V100.165H70.5967V103.165ZM197.634 118.316V121.316H200.634V118.316H197.634ZM184.813 118.316V115.316H181.813V118.316H184.813ZM184.813 132.302V135.302H187.813V132.302H184.813ZM173.158 132.302V129.302H170.158V132.302H173.158ZM173.158 169.597V172.597H176.158V169.597H173.158ZM156.842 169.597H153.842V172.597H156.842V169.597ZM156.842 133.468H159.842V130.468H156.842V133.468ZM145.188 133.468H142.188V136.468H145.188V133.468ZM145.188 119.482H148.188V116.482H145.188V119.482ZM132.367 119.482H129.367V122.482H132.367V119.482ZM132.367 103.165V100.165H129.367V103.165H132.367ZM148.684 103.165H151.684V100.165H148.684V103.165ZM148.684 117.151H145.684V120.151H148.684V117.151ZM161.504 117.151H164.504V114.151H161.504V117.151ZM161.504 128.806H158.504V131.806H161.504V128.806ZM168.497 128.806V131.806H171.497V128.806H168.497ZM168.497 115.985V112.985H165.497V115.985H168.497ZM181.316 115.985V118.985H184.316V115.985H181.316ZM181.316 102V99H178.316V102H181.316ZM197.634 102H200.634V99H197.634V102ZM310.684 119.481V122.481H313.684V119.481H310.684ZM260.568 119.481V116.481H257.568V119.481H260.568ZM260.568 153.28H257.568V156.28H260.568V153.28ZM294.367 153.28V156.28H297.367V153.28H294.367ZM294.367 143.956H297.367V140.956H294.367V143.956ZM276.885 143.956H273.885V146.956H276.885V143.956ZM276.885 127.64V124.64H273.885V127.64H276.885ZM310.684 127.64H313.684V124.64H310.684V127.64ZM310.684 169.597V172.597H313.684V169.597H310.684ZM259.403 169.597H256.403V172.597H259.403V169.597ZM259.403 156.776H262.403V153.776H259.403V156.776ZM244.252 156.776H241.252V159.776H244.252V156.776ZM244.252 117.15V114.15H241.252V117.15H244.252ZM260.568 117.15V120.15H263.568V117.15H260.568ZM260.568 103.165V100.165H257.568V103.165H260.568ZM310.684 103.165H313.684V100.165H310.684V103.165ZM366.626 119.481V122.481H369.626V119.481H366.626ZM352.64 119.481V116.481H349.64V119.481H352.64ZM352.64 153.28H349.64V156.28H352.64V153.28ZM366.626 153.28H369.626V150.28H366.626V153.28ZM366.626 169.597V172.597H369.626V169.597H366.626ZM322.338 169.597H319.338V172.597H322.338V169.597ZM322.338 153.28V150.28H319.338V153.28H322.338ZM336.323 153.28V156.28H339.323V153.28H336.323ZM336.323 119.481H339.323V116.481H336.323V119.481ZM322.338 119.481H319.338V122.481H322.338V119.481ZM322.338 103.165V100.165H319.338V103.165H322.338ZM366.626 103.165H369.626V100.165H366.626V103.165ZM444.712 119.481V122.481H447.712V119.481H444.712ZM419.071 119.481V116.481H416.071V119.481H419.071ZM419.071 169.597V172.597H422.071V169.597H419.071ZM402.755 169.597H399.755V172.597H402.755V169.597ZM402.755 119.481H405.755V116.481H402.755V119.481ZM378.28 119.481H375.28V122.481H378.28V119.481ZM378.28 103.165V100.165H375.28V103.165H378.28ZM444.712 103.165H447.712V100.165H444.712V103.165ZM472.684 127.64H469.684V130.64H472.684V127.64ZM506.482 127.64V130.64H509.482V127.64H506.482ZM506.482 103.165V100.165H503.482V103.165H506.482ZM522.799 103.165H525.799V100.165H522.799V103.165ZM522.799 169.597V172.597H525.799V169.597H522.799ZM506.482 169.597H503.482V172.597H506.482V169.597ZM506.482 143.956H509.482V140.956H506.482V143.956ZM472.684 143.956V140.956H469.684V143.956H472.684ZM472.684 169.597V172.597H475.684V169.597H472.684ZM456.367 169.597H453.367V172.597H456.367V169.597ZM456.367 103.165V100.165H453.367V103.165H456.367ZM472.684 103.165H475.684V100.165H472.684V103.165ZM549.604 153.28H546.604V156.28H549.604V153.28ZM583.402 153.28V156.28H586.402V153.28H583.402ZM583.402 103.165V100.165H580.402V103.165H583.402ZM599.719 103.165H602.719V100.165H599.719V103.165ZM599.719 156.776V159.776H602.719V156.776H599.719ZM583.402 156.776V153.776H580.402V156.776H583.402ZM583.402 169.597V172.597H586.402V169.597H583.402ZM549.604 169.597H546.604V172.597H549.604V169.597ZM549.604 156.776H552.604V153.776H549.604V156.776ZM533.287 156.776H530.287V159.776H533.287V156.776ZM533.287 103.165V100.165H530.287V103.165H533.287ZM549.604 103.165H552.604V100.165H549.604V103.165ZM661.489 117.15H658.489V120.15H661.489V117.15ZM677.806 117.15H680.806V114.15H677.806V117.15ZM677.806 133.467V136.467H680.806V133.467H677.806ZM661.489 133.467V130.467H658.489V133.467H661.489ZM661.489 139.295H658.489V142.295H661.489V139.295ZM677.806 139.295H680.806V136.295H677.806V139.295ZM677.806 155.611V158.611H680.806V155.611H677.806ZM661.489 155.611V152.611H658.489V155.611H661.489ZM661.489 169.597V172.597H664.489V169.597H661.489ZM611.374 169.597H608.374V172.597H611.374V169.597ZM611.374 103.165V100.165H608.374V103.165H611.374ZM661.489 103.165H664.489V100.165H661.489V103.165ZM627.69 153.28H624.69V156.28H627.69V153.28ZM661.489 153.28V156.28H664.489V153.28H661.489ZM661.489 143.956H664.489V140.956H661.489V143.956ZM627.69 143.956V140.956H624.69V143.956H627.69ZM627.69 127.64H624.69V130.64H627.69V127.64ZM661.489 127.64V130.64H664.489V127.64H661.489ZM661.489 119.481H664.489V116.481H661.489V119.481ZM627.69 119.481V116.481H624.69V119.481H627.69ZM70.5967 117.15V120.15H84.582V117.15V114.15H70.5967V117.15ZM84.582 117.15H81.582V127.64H84.582H87.582V117.15H84.582ZM84.582 127.64V130.64H90.4102V127.64V124.64H84.582V127.64ZM90.4102 127.64H93.4102V117.15H90.4102H87.4102V127.64H90.4102ZM90.4102 117.15V120.15H104.396V117.15V114.15H90.4102V117.15ZM104.396 117.15H107.396V103.165H104.396H101.396V117.15H104.396ZM104.396 103.165V106.165H120.712V103.165V100.165H104.396V103.165ZM120.712 103.165H117.712V169.597H120.712H123.712V103.165H120.712ZM120.712 169.597V166.597H104.396V169.597V172.597H120.712V169.597ZM104.396 169.597H107.396V133.467H104.396H101.396V169.597H104.396ZM104.396 133.467V130.467H95.0713V133.467V136.467H104.396V133.467ZM95.0713 133.467H92.0713V143.956H95.0713H98.0713V133.467H95.0713ZM95.0713 143.956V140.956H78.7549V143.956V146.956H95.0713V143.956ZM78.7549 143.956H81.7549V133.467H78.7549H75.7549V143.956H78.7549ZM78.7549 133.467V130.467H70.5967V133.467V136.467H78.7549V133.467ZM70.5967 133.467H67.5967V169.597H70.5967H73.5967V133.467H70.5967ZM70.5967 169.597V166.597H54.2803V169.597V172.597H70.5967V169.597ZM54.2803 169.597H57.2803V103.165H54.2803H51.2803V169.597H54.2803ZM54.2803 103.165V106.165H70.5967V103.165V100.165H54.2803V103.165ZM70.5967 103.165H67.5967V117.15H70.5967H73.5967V103.165H70.5967ZM197.634 118.316V115.316H184.813V118.316V121.316H197.634V118.316ZM184.813 118.316H181.813V132.302H184.813H187.813V118.316H184.813ZM184.813 132.302V129.302H173.158V132.302V135.302H184.813V132.302ZM173.158 132.302H170.158V169.597H173.158H176.158V132.302H173.158ZM173.158 169.597V166.597H156.842V169.597V172.597H173.158V169.597ZM156.842 169.597H159.842V133.468H156.842H153.842V169.597H156.842ZM156.842 133.468V130.468H145.188V133.468V136.468H156.842V133.468ZM145.188 133.468H148.188V119.482H145.188H142.188V133.468H145.188ZM145.188 119.482V116.482H132.367V119.482V122.482H145.188V119.482ZM132.367 119.482H135.367V103.165H132.367H129.367V119.482H132.367ZM132.367 103.165V106.165H148.684V103.165V100.165H132.367V103.165ZM148.684 103.165H145.684V117.151H148.684H151.684V103.165H148.684ZM148.684 117.151V120.151H161.504V117.151V114.151H148.684V117.151ZM161.504 117.151H158.504V128.806H161.504H164.504V117.151H161.504ZM161.504 128.806V131.806H168.497V128.806V125.806H161.504V128.806ZM168.497 128.806H171.497V115.985H168.497H165.497V128.806H168.497ZM168.497 115.985V118.985H181.316V115.985V112.985H168.497V115.985ZM181.316 115.985H184.316V102H181.316H178.316V115.985H181.316ZM181.316 102V105H197.634V102V99H181.316V102ZM197.634 102H194.634V118.316H197.634H200.634V102H197.634ZM310.684 119.481V116.481H260.568V119.481V122.481H310.684V119.481ZM260.568 119.481H257.568V153.28H260.568H263.568V119.481H260.568ZM260.568 153.28V156.28H294.367V153.28V150.28H260.568V153.28ZM294.367 153.28H297.367V143.956H294.367H291.367V153.28H294.367ZM294.367 143.956V140.956H276.885V143.956V146.956H294.367V143.956ZM276.885 143.956H279.885V127.64H276.885H273.885V143.956H276.885ZM276.885 127.64V130.64H310.684V127.64V124.64H276.885V127.64ZM310.684 127.64H307.684V169.597H310.684H313.684V127.64H310.684ZM310.684 169.597V166.597H259.403V169.597V172.597H310.684V169.597ZM259.403 169.597H262.403V156.776H259.403H256.403V169.597H259.403ZM259.403 156.776V153.776H244.252V156.776V159.776H259.403V156.776ZM244.252 156.776H247.252V117.15H244.252H241.252V156.776H244.252ZM244.252 117.15V120.15H260.568V117.15V114.15H244.252V117.15ZM260.568 117.15H263.568V103.165H260.568H257.568V117.15H260.568ZM260.568 103.165V106.165H310.684V103.165V100.165H260.568V103.165ZM310.684 103.165H307.684V119.481H310.684H313.684V103.165H310.684ZM366.626 119.481V116.481H352.64V119.481V122.481H366.626V119.481ZM352.64 119.481H349.64V153.28H352.64H355.64V119.481H352.64ZM352.64 153.28V156.28H366.626V153.28V150.28H352.64V153.28ZM366.626 153.28H363.626V169.597H366.626H369.626V153.28H366.626ZM366.626 169.597V166.597H322.338V169.597V172.597H366.626V169.597ZM322.338 169.597H325.338V153.28H322.338H319.338V169.597H322.338ZM322.338 153.28V156.28H336.323V153.28V150.28H322.338V153.28ZM336.323 153.28H339.323V119.481H336.323H333.323V153.28H336.323ZM336.323 119.481V116.481H322.338V119.481V122.481H336.323V119.481ZM322.338 119.481H325.338V103.165H322.338H319.338V119.481H322.338ZM322.338 103.165V106.165H366.626V103.165V100.165H322.338V103.165ZM366.626 103.165H363.626V119.481H366.626H369.626V103.165H366.626ZM444.712 119.481V116.481H419.071V119.481V122.481H444.712V119.481ZM419.071 119.481H416.071V169.597H419.071H422.071V119.481H419.071ZM419.071 169.597V166.597H402.755V169.597V172.597H419.071V169.597ZM402.755 169.597H405.755V119.481H402.755H399.755V169.597H402.755ZM402.755 119.481V116.481H378.28V119.481V122.481H402.755V119.481ZM378.28 119.481H381.28V103.165H378.28H375.28V119.481H378.28ZM378.28 103.165V106.165H444.712V103.165V100.165H378.28V103.165ZM444.712 103.165H441.712V119.481H444.712H447.712V103.165H444.712ZM472.684 127.64V130.64H506.482V127.64V124.64H472.684V127.64ZM506.482 127.64H509.482V103.165H506.482H503.482V127.64H506.482ZM506.482 103.165V106.165H522.799V103.165V100.165H506.482V103.165ZM522.799 103.165H519.799V169.597H522.799H525.799V103.165H522.799ZM522.799 169.597V166.597H506.482V169.597V172.597H522.799V169.597ZM506.482 169.597H509.482V143.956H506.482H503.482V169.597H506.482ZM506.482 143.956V140.956H472.684V143.956V146.956H506.482V143.956ZM472.684 143.956H469.684V169.597H472.684H475.684V143.956H472.684ZM472.684 169.597V166.597H456.367V169.597V172.597H472.684V169.597ZM456.367 169.597H459.367V103.165H456.367H453.367V169.597H456.367ZM456.367 103.165V106.165H472.684V103.165V100.165H456.367V103.165ZM472.684 103.165H469.684V127.64H472.684H475.684V103.165H472.684ZM549.604 153.28V156.28H583.402V153.28V150.28H549.604V153.28ZM583.402 153.28H586.402V103.165H583.402H580.402V153.28H583.402ZM583.402 103.165V106.165H599.719V103.165V100.165H583.402V103.165ZM599.719 103.165H596.719V156.776H599.719H602.719V103.165H599.719ZM599.719 156.776V153.776H583.402V156.776V159.776H599.719V156.776ZM583.402 156.776H580.402V169.597H583.402H586.402V156.776H583.402ZM583.402 169.597V166.597H549.604V169.597V172.597H583.402V169.597ZM549.604 169.597H552.604V156.776H549.604H546.604V169.597H549.604ZM549.604 156.776V153.776H533.287V156.776V159.776H549.604V156.776ZM533.287 156.776H536.287V103.165H533.287H530.287V156.776H533.287ZM533.287 103.165V106.165H549.604V103.165V100.165H533.287V103.165ZM549.604 103.165H546.604V153.28H549.604H552.604V103.165H549.604ZM661.489 117.15V120.15H677.806V117.15V114.15H661.489V117.15ZM677.806 117.15H674.806V133.467H677.806H680.806V117.15H677.806ZM677.806 133.467V130.467H661.489V133.467V136.467H677.806V133.467ZM661.489 133.467H658.489V139.295H661.489H664.489V133.467H661.489ZM661.489 139.295V142.295H677.806V139.295V136.295H661.489V139.295ZM677.806 139.295H674.806V155.611H677.806H680.806V139.295H677.806ZM677.806 155.611V152.611H661.489V155.611V158.611H677.806V155.611ZM661.489 155.611H658.489V169.597H661.489H664.489V155.611H661.489ZM661.489 169.597V166.597H611.374V169.597V172.597H661.489V169.597ZM611.374 169.597H614.374V103.165H611.374H608.374V169.597H611.374ZM611.374 103.165V106.165H661.489V103.165V100.165H611.374V103.165ZM661.489 103.165H658.489V117.15H661.489H664.489V103.165H661.489ZM627.69 153.28V156.28H661.489V153.28V150.28H627.69V153.28ZM661.489 153.28H664.489V143.956H661.489H658.489V153.28H661.489ZM661.489 143.956V140.956H627.69V143.956V146.956H661.489V143.956ZM627.69 143.956H624.69V153.28H627.69H630.69V143.956H627.69ZM627.69 127.64V130.64H661.489V127.64V124.64H627.69V127.64ZM661.489 127.64H664.489V119.481H661.489H658.489V127.64H661.489ZM661.489 119.481V116.481H627.69V119.481V122.481H661.489V119.481ZM627.69 119.481H624.69V127.64H627.69H630.69V119.481H627.69Z" fill="white" mask="url(#path-2-outside-1_3_290)"/>
</g>
<g filter="url(#filter2_n_3_290)">
<mask id="path-4-outside-2_3_290" maskUnits="userSpaceOnUse" x="0" y="0.568359" width="733" height="73" fill="black">
<rect fill="white" y="0.568359" width="733" height="73"/>
<path d="M19.3164 39.6982H28.6406V29.209H44.957V39.6982H53.1152V3.56836H69.4316V70H53.1152V56.0146H39.1299V45.5254H33.3018V56.0146H19.3164V70H3V3.56836H19.3164V39.6982ZM147.518 19.8848H97.4023V28.043H131.201V44.3594H97.4023V53.6836H147.518V70H81.0859V3.56836H147.518V19.8848ZM175.489 53.6836H225.604V70H159.173V3.56836H175.489V53.6836ZM287.374 15.2227H303.69V31.54H287.374V19.8848H253.575V53.6836H287.374V42.0283H303.69V58.3457H287.374V70H253.575V56.0146H237.259V17.5537H253.575V3.56836H287.374V15.2227ZM365.46 17.5537H381.776V56.0146H365.46V70H331.661V56.0146H315.345V17.5537H331.661V3.56836H365.46V17.5537ZM409.748 17.5537H423.733V28.043H429.562V17.5537H443.547V3.56836H459.863V70H443.547V33.8701H434.223V44.3594H417.906V33.8701H409.748V70H393.432V3.56836H409.748V17.5537ZM537.949 19.8848H487.834V28.043H521.633V44.3594H487.834V53.6836H537.949V70H471.518V3.56836H537.949V19.8848ZM651 19.8848H625.359V70H609.043V19.8848H584.568V3.56836H651V19.8848ZM712.77 17.5537H729.086V56.0146H712.77V70H678.971V56.0146H662.654V17.5537H678.971V3.56836H712.77V17.5537ZM331.661 53.6836H365.46V19.8848H331.661V53.6836ZM678.971 53.6836H712.77V19.8848H678.971V53.6836Z"/>
</mask>
<path d="M19.3164 39.6982H28.6406V29.209H44.957V39.6982H53.1152V3.56836H69.4316V70H53.1152V56.0146H39.1299V45.5254H33.3018V56.0146H19.3164V70H3V3.56836H19.3164V39.6982ZM147.518 19.8848H97.4023V28.043H131.201V44.3594H97.4023V53.6836H147.518V70H81.0859V3.56836H147.518V19.8848ZM175.489 53.6836H225.604V70H159.173V3.56836H175.489V53.6836ZM287.374 15.2227H303.69V31.54H287.374V19.8848H253.575V53.6836H287.374V42.0283H303.69V58.3457H287.374V70H253.575V56.0146H237.259V17.5537H253.575V3.56836H287.374V15.2227ZM365.46 17.5537H381.776V56.0146H365.46V70H331.661V56.0146H315.345V17.5537H331.661V3.56836H365.46V17.5537ZM409.748 17.5537H423.733V28.043H429.562V17.5537H443.547V3.56836H459.863V70H443.547V33.8701H434.223V44.3594H417.906V33.8701H409.748V70H393.432V3.56836H409.748V17.5537ZM537.949 19.8848H487.834V28.043H521.633V44.3594H487.834V53.6836H537.949V70H471.518V3.56836H537.949V19.8848ZM651 19.8848H625.359V70H609.043V19.8848H584.568V3.56836H651V19.8848ZM712.77 17.5537H729.086V56.0146H712.77V70H678.971V56.0146H662.654V17.5537H678.971V3.56836H712.77V17.5537ZM331.661 53.6836H365.46V19.8848H331.661V53.6836ZM678.971 53.6836H712.77V19.8848H678.971V53.6836Z" fill="url(#paint1_linear_3_290)"/>
<path d="M19.3164 39.6982H16.3164V42.6982H19.3164V39.6982ZM28.6406 39.6982V42.6982H31.6406V39.6982H28.6406ZM28.6406 29.209V26.209H25.6406V29.209H28.6406ZM44.957 29.209H47.957V26.209H44.957V29.209ZM44.957 39.6982H41.957V42.6982H44.957V39.6982ZM53.1152 39.6982V42.6982H56.1152V39.6982H53.1152ZM53.1152 3.56836V0.568359H50.1152V3.56836H53.1152ZM69.4316 3.56836H72.4316V0.568359H69.4316V3.56836ZM69.4316 70V73H72.4316V70H69.4316ZM53.1152 70H50.1152V73H53.1152V70ZM53.1152 56.0146H56.1152V53.0146H53.1152V56.0146ZM39.1299 56.0146H36.1299V59.0146H39.1299V56.0146ZM39.1299 45.5254H42.1299V42.5254H39.1299V45.5254ZM33.3018 45.5254V42.5254H30.3018V45.5254H33.3018ZM33.3018 56.0146V59.0146H36.3018V56.0146H33.3018ZM19.3164 56.0146V53.0146H16.3164V56.0146H19.3164ZM19.3164 70V73H22.3164V70H19.3164ZM3 70H0V73H3V70ZM3 3.56836V0.568359H0V3.56836H3ZM19.3164 3.56836H22.3164V0.568359H19.3164V3.56836ZM147.518 19.8848V22.8848H150.518V19.8848H147.518ZM97.4023 19.8848V16.8848H94.4023V19.8848H97.4023ZM97.4023 28.043H94.4023V31.043H97.4023V28.043ZM131.201 28.043H134.201V25.043H131.201V28.043ZM131.201 44.3594V47.3594H134.201V44.3594H131.201ZM97.4023 44.3594V41.3594H94.4023V44.3594H97.4023ZM97.4023 53.6836H94.4023V56.6836H97.4023V53.6836ZM147.518 53.6836H150.518V50.6836H147.518V53.6836ZM147.518 70V73H150.518V70H147.518ZM81.0859 70H78.0859V73H81.0859V70ZM81.0859 3.56836V0.568359H78.0859V3.56836H81.0859ZM147.518 3.56836H150.518V0.568359H147.518V3.56836ZM175.489 53.6836H172.489V56.6836H175.489V53.6836ZM225.604 53.6836H228.604V50.6836H225.604V53.6836ZM225.604 70V73H228.604V70H225.604ZM159.173 70H156.173V73H159.173V70ZM159.173 3.56836V0.568359H156.173V3.56836H159.173ZM175.489 3.56836H178.489V0.568359H175.489V3.56836ZM287.374 15.2227H284.374V18.2227H287.374V15.2227ZM303.69 15.2227H306.69V12.2227H303.69V15.2227ZM303.69 31.54V34.54H306.69V31.54H303.69ZM287.374 31.54H284.374V34.54H287.374V31.54ZM287.374 19.8848H290.374V16.8848H287.374V19.8848ZM253.575 19.8848V16.8848H250.575V19.8848H253.575ZM253.575 53.6836H250.575V56.6836H253.575V53.6836ZM287.374 53.6836V56.6836H290.374V53.6836H287.374ZM287.374 42.0283V39.0283H284.374V42.0283H287.374ZM303.69 42.0283H306.69V39.0283H303.69V42.0283ZM303.69 58.3457V61.3457H306.69V58.3457H303.69ZM287.374 58.3457V55.3457H284.374V58.3457H287.374ZM287.374 70V73H290.374V70H287.374ZM253.575 70H250.575V73H253.575V70ZM253.575 56.0146H256.575V53.0146H253.575V56.0146ZM237.259 56.0146H234.259V59.0146H237.259V56.0146ZM237.259 17.5537V14.5537H234.259V17.5537H237.259ZM253.575 17.5537V20.5537H256.575V17.5537H253.575ZM253.575 3.56836V0.568359H250.575V3.56836H253.575ZM287.374 3.56836H290.374V0.568359H287.374V3.56836ZM365.46 17.5537H362.46V20.5537H365.46V17.5537ZM381.776 17.5537H384.776V14.5537H381.776V17.5537ZM381.776 56.0146V59.0146H384.776V56.0146H381.776ZM365.46 56.0146V53.0146H362.46V56.0146H365.46ZM365.46 70V73H368.46V70H365.46ZM331.661 70H328.661V73H331.661V70ZM331.661 56.0146H334.661V53.0146H331.661V56.0146ZM315.345 56.0146H312.345V59.0146H315.345V56.0146ZM315.345 17.5537V14.5537H312.345V17.5537H315.345ZM331.661 17.5537V20.5537H334.661V17.5537H331.661ZM331.661 3.56836V0.568359H328.661V3.56836H331.661ZM365.46 3.56836H368.46V0.568359H365.46V3.56836ZM409.748 17.5537H406.748V20.5537H409.748V17.5537ZM423.733 17.5537H426.733V14.5537H423.733V17.5537ZM423.733 28.043H420.733V31.043H423.733V28.043ZM429.562 28.043V31.043H432.562V28.043H429.562ZM429.562 17.5537V14.5537H426.562V17.5537H429.562ZM443.547 17.5537V20.5537H446.547V17.5537H443.547ZM443.547 3.56836V0.568359H440.547V3.56836H443.547ZM459.863 3.56836H462.863V0.568359H459.863V3.56836ZM459.863 70V73H462.863V70H459.863ZM443.547 70H440.547V73H443.547V70ZM443.547 33.8701H446.547V30.8701H443.547V33.8701ZM434.223 33.8701V30.8701H431.223V33.8701H434.223ZM434.223 44.3594V47.3594H437.223V44.3594H434.223ZM417.906 44.3594H414.906V47.3594H417.906V44.3594ZM417.906 33.8701H420.906V30.8701H417.906V33.8701ZM409.748 33.8701V30.8701H406.748V33.8701H409.748ZM409.748 70V73H412.748V70H409.748ZM393.432 70H390.432V73H393.432V70ZM393.432 3.56836V0.568359H390.432V3.56836H393.432ZM409.748 3.56836H412.748V0.568359H409.748V3.56836ZM537.949 19.8848V22.8848H540.949V19.8848H537.949ZM487.834 19.8848V16.8848H484.834V19.8848H487.834ZM487.834 28.043H484.834V31.043H487.834V28.043ZM521.633 28.043H524.633V25.043H521.633V28.043ZM521.633 44.3594V47.3594H524.633V44.3594H521.633ZM487.834 44.3594V41.3594H484.834V44.3594H487.834ZM487.834 53.6836H484.834V56.6836H487.834V53.6836ZM537.949 53.6836H540.949V50.6836H537.949V53.6836ZM537.949 70V73H540.949V70H537.949ZM471.518 70H468.518V73H471.518V70ZM471.518 3.56836V0.568359H468.518V3.56836H471.518ZM537.949 3.56836H540.949V0.568359H537.949V3.56836ZM651 19.8848V22.8848H654V19.8848H651ZM625.359 19.8848V16.8848H622.359V19.8848H625.359ZM625.359 70V73H628.359V70H625.359ZM609.043 70H606.043V73H609.043V70ZM609.043 19.8848H612.043V16.8848H609.043V19.8848ZM584.568 19.8848H581.568V22.8848H584.568V19.8848ZM584.568 3.56836V0.568359H581.568V3.56836H584.568ZM651 3.56836H654V0.568359H651V3.56836ZM712.77 17.5537H709.77V20.5537H712.77V17.5537ZM729.086 17.5537H732.086V14.5537H729.086V17.5537ZM729.086 56.0146V59.0146H732.086V56.0146H729.086ZM712.77 56.0146V53.0146H709.77V56.0146H712.77ZM712.77 70V73H715.77V70H712.77ZM678.971 70H675.971V73H678.971V70ZM678.971 56.0146H681.971V53.0146H678.971V56.0146ZM662.654 56.0146H659.654V59.0146H662.654V56.0146ZM662.654 17.5537V14.5537H659.654V17.5537H662.654ZM678.971 17.5537V20.5537H681.971V17.5537H678.971ZM678.971 3.56836V0.568359H675.971V3.56836H678.971ZM712.77 3.56836H715.77V0.568359H712.77V3.56836ZM331.661 53.6836H328.661V56.6836H331.661V53.6836ZM365.46 53.6836V56.6836H368.46V53.6836H365.46ZM365.46 19.8848H368.46V16.8848H365.46V19.8848ZM331.661 19.8848V16.8848H328.661V19.8848H331.661ZM678.971 53.6836H675.971V56.6836H678.971V53.6836ZM712.77 53.6836V56.6836H715.77V53.6836H712.77ZM712.77 19.8848H715.77V16.8848H712.77V19.8848ZM678.971 19.8848V16.8848H675.971V19.8848H678.971ZM19.3164 39.6982V42.6982H28.6406V39.6982V36.6982H19.3164V39.6982ZM28.6406 39.6982H31.6406V29.209H28.6406H25.6406V39.6982H28.6406ZM28.6406 29.209V32.209H44.957V29.209V26.209H28.6406V29.209ZM44.957 29.209H41.957V39.6982H44.957H47.957V29.209H44.957ZM44.957 39.6982V42.6982H53.1152V39.6982V36.6982H44.957V39.6982ZM53.1152 39.6982H56.1152V3.56836H53.1152H50.1152V39.6982H53.1152ZM53.1152 3.56836V6.56836H69.4316V3.56836V0.568359H53.1152V3.56836ZM69.4316 3.56836H66.4316V70H69.4316H72.4316V3.56836H69.4316ZM69.4316 70V67H53.1152V70V73H69.4316V70ZM53.1152 70H56.1152V56.0146H53.1152H50.1152V70H53.1152ZM53.1152 56.0146V53.0146H39.1299V56.0146V59.0146H53.1152V56.0146ZM39.1299 56.0146H42.1299V45.5254H39.1299H36.1299V56.0146H39.1299ZM39.1299 45.5254V42.5254H33.3018V45.5254V48.5254H39.1299V45.5254ZM33.3018 45.5254H30.3018V56.0146H33.3018H36.3018V45.5254H33.3018ZM33.3018 56.0146V53.0146H19.3164V56.0146V59.0146H33.3018V56.0146ZM19.3164 56.0146H16.3164V70H19.3164H22.3164V56.0146H19.3164ZM19.3164 70V67H3V70V73H19.3164V70ZM3 70H6V3.56836H3H0V70H3ZM3 3.56836V6.56836H19.3164V3.56836V0.568359H3V3.56836ZM19.3164 3.56836H16.3164V39.6982H19.3164H22.3164V3.56836H19.3164ZM147.518 19.8848V16.8848H97.4023V19.8848V22.8848H147.518V19.8848ZM97.4023 19.8848H94.4023V28.043H97.4023H100.402V19.8848H97.4023ZM97.4023 28.043V31.043H131.201V28.043V25.043H97.4023V28.043ZM131.201 28.043H128.201V44.3594H131.201H134.201V28.043H131.201ZM131.201 44.3594V41.3594H97.4023V44.3594V47.3594H131.201V44.3594ZM97.4023 44.3594H94.4023V53.6836H97.4023H100.402V44.3594H97.4023ZM97.4023 53.6836V56.6836H147.518V53.6836V50.6836H97.4023V53.6836ZM147.518 53.6836H144.518V70H147.518H150.518V53.6836H147.518ZM147.518 70V67H81.0859V70V73H147.518V70ZM81.0859 70H84.0859V3.56836H81.0859H78.0859V70H81.0859ZM81.0859 3.56836V6.56836H147.518V3.56836V0.568359H81.0859V3.56836ZM147.518 3.56836H144.518V19.8848H147.518H150.518V3.56836H147.518ZM175.489 53.6836V56.6836H225.604V53.6836V50.6836H175.489V53.6836ZM225.604 53.6836H222.604V70H225.604H228.604V53.6836H225.604ZM225.604 70V67H159.173V70V73H225.604V70ZM159.173 70H162.173V3.56836H159.173H156.173V70H159.173ZM159.173 3.56836V6.56836H175.489V3.56836V0.568359H159.173V3.56836ZM175.489 3.56836H172.489V53.6836H175.489H178.489V3.56836H175.489ZM287.374 15.2227V18.2227H303.69V15.2227V12.2227H287.374V15.2227ZM303.69 15.2227H300.69V31.54H303.69H306.69V15.2227H303.69ZM303.69 31.54V28.54H287.374V31.54V34.54H303.69V31.54ZM287.374 31.54H290.374V19.8848H287.374H284.374V31.54H287.374ZM287.374 19.8848V16.8848H253.575V19.8848V22.8848H287.374V19.8848ZM253.575 19.8848H250.575V53.6836H253.575H256.575V19.8848H253.575ZM253.575 53.6836V56.6836H287.374V53.6836V50.6836H253.575V53.6836ZM287.374 53.6836H290.374V42.0283H287.374H284.374V53.6836H287.374ZM287.374 42.0283V45.0283H303.69V42.0283V39.0283H287.374V42.0283ZM303.69 42.0283H300.69V58.3457H303.69H306.69V42.0283H303.69ZM303.69 58.3457V55.3457H287.374V58.3457V61.3457H303.69V58.3457ZM287.374 58.3457H284.374V70H287.374H290.374V58.3457H287.374ZM287.374 70V67H253.575V70V73H287.374V70ZM253.575 70H256.575V56.0146H253.575H250.575V70H253.575ZM253.575 56.0146V53.0146H237.259V56.0146V59.0146H253.575V56.0146ZM237.259 56.0146H240.259V17.5537H237.259H234.259V56.0146H237.259ZM237.259 17.5537V20.5537H253.575V17.5537V14.5537H237.259V17.5537ZM253.575 17.5537H256.575V3.56836H253.575H250.575V17.5537H253.575ZM253.575 3.56836V6.56836H287.374V3.56836V0.568359H253.575V3.56836ZM287.374 3.56836H284.374V15.2227H287.374H290.374V3.56836H287.374ZM365.46 17.5537V20.5537H381.776V17.5537V14.5537H365.46V17.5537ZM381.776 17.5537H378.776V56.0146H381.776H384.776V17.5537H381.776ZM381.776 56.0146V53.0146H365.46V56.0146V59.0146H381.776V56.0146ZM365.46 56.0146H362.46V70H365.46H368.46V56.0146H365.46ZM365.46 70V67H331.661V70V73H365.46V70ZM331.661 70H334.661V56.0146H331.661H328.661V70H331.661ZM331.661 56.0146V53.0146H315.345V56.0146V59.0146H331.661V56.0146ZM315.345 56.0146H318.345V17.5537H315.345H312.345V56.0146H315.345ZM315.345 17.5537V20.5537H331.661V17.5537V14.5537H315.345V17.5537ZM331.661 17.5537H334.661V3.56836H331.661H328.661V17.5537H331.661ZM331.661 3.56836V6.56836H365.46V3.56836V0.568359H331.661V3.56836ZM365.46 3.56836H362.46V17.5537H365.46H368.46V3.56836H365.46ZM409.748 17.5537V20.5537H423.733V17.5537V14.5537H409.748V17.5537ZM423.733 17.5537H420.733V28.043H423.733H426.733V17.5537H423.733ZM423.733 28.043V31.043H429.562V28.043V25.043H423.733V28.043ZM429.562 28.043H432.562V17.5537H429.562H426.562V28.043H429.562ZM429.562 17.5537V20.5537H443.547V17.5537V14.5537H429.562V17.5537ZM443.547 17.5537H446.547V3.56836H443.547H440.547V17.5537H443.547ZM443.547 3.56836V6.56836H459.863V3.56836V0.568359H443.547V3.56836ZM459.863 3.56836H456.863V70H459.863H462.863V3.56836H459.863ZM459.863 70V67H443.547V70V73H459.863V70ZM443.547 70H446.547V33.8701H443.547H440.547V70H443.547ZM443.547 33.8701V30.8701H434.223V33.8701V36.8701H443.547V33.8701ZM434.223 33.8701H431.223V44.3594H434.223H437.223V33.8701H434.223ZM434.223 44.3594V41.3594H417.906V44.3594V47.3594H434.223V44.3594ZM417.906 44.3594H420.906V33.8701H417.906H414.906V44.3594H417.906ZM417.906 33.8701V30.8701H409.748V33.8701V36.8701H417.906V33.8701ZM409.748 33.8701H406.748V70H409.748H412.748V33.8701H409.748ZM409.748 70V67H393.432V70V73H409.748V70ZM393.432 70H396.432V3.56836H393.432H390.432V70H393.432ZM393.432 3.56836V6.56836H409.748V3.56836V0.568359H393.432V3.56836ZM409.748 3.56836H406.748V17.5537H409.748H412.748V3.56836H409.748ZM537.949 19.8848V16.8848H487.834V19.8848V22.8848H537.949V19.8848ZM487.834 19.8848H484.834V28.043H487.834H490.834V19.8848H487.834ZM487.834 28.043V31.043H521.633V28.043V25.043H487.834V28.043ZM521.633 28.043H518.633V44.3594H521.633H524.633V28.043H521.633ZM521.633 44.3594V41.3594H487.834V44.3594V47.3594H521.633V44.3594ZM487.834 44.3594H484.834V53.6836H487.834H490.834V44.3594H487.834ZM487.834 53.6836V56.6836H537.949V53.6836V50.6836H487.834V53.6836ZM537.949 53.6836H534.949V70H537.949H540.949V53.6836H537.949ZM537.949 70V67H471.518V70V73H537.949V70ZM471.518 70H474.518V3.56836H471.518H468.518V70H471.518ZM471.518 3.56836V6.56836H537.949V3.56836V0.568359H471.518V3.56836ZM537.949 3.56836H534.949V19.8848H537.949H540.949V3.56836H537.949ZM651 19.8848V16.8848H625.359V19.8848V22.8848H651V19.8848ZM625.359 19.8848H622.359V70H625.359H628.359V19.8848H625.359ZM625.359 70V67H609.043V70V73H625.359V70ZM609.043 70H612.043V19.8848H609.043H606.043V70H609.043ZM609.043 19.8848V16.8848H584.568V19.8848V22.8848H609.043V19.8848ZM584.568 19.8848H587.568V3.56836H584.568H581.568V19.8848H584.568ZM584.568 3.56836V6.56836H651V3.56836V0.568359H584.568V3.56836ZM651 3.56836H648V19.8848H651H654V3.56836H651ZM712.77 17.5537V20.5537H729.086V17.5537V14.5537H712.77V17.5537ZM729.086 17.5537H726.086V56.0146H729.086H732.086V17.5537H729.086ZM729.086 56.0146V53.0146H712.77V56.0146V59.0146H729.086V56.0146ZM712.77 56.0146H709.77V70H712.77H715.77V56.0146H712.77ZM712.77 70V67H678.971V70V73H712.77V70ZM678.971 70H681.971V56.0146H678.971H675.971V70H678.971ZM678.971 56.0146V53.0146H662.654V56.0146V59.0146H678.971V56.0146ZM662.654 56.0146H665.654V17.5537H662.654H659.654V56.0146H662.654ZM662.654 17.5537V20.5537H678.971V17.5537V14.5537H662.654V17.5537ZM678.971 17.5537H681.971V3.56836H678.971H675.971V17.5537H678.971ZM678.971 3.56836V6.56836H712.77V3.56836V0.568359H678.971V3.56836ZM712.77 3.56836H709.77V17.5537H712.77H715.77V3.56836H712.77ZM331.661 53.6836V56.6836H365.46V53.6836V50.6836H331.661V53.6836ZM365.46 53.6836H368.46V19.8848H365.46H362.46V53.6836H365.46ZM365.46 19.8848V16.8848H331.661V19.8848V22.8848H365.46V19.8848ZM331.661 19.8848H328.661V53.6836H331.661H334.661V19.8848H331.661ZM678.971 53.6836V56.6836H712.77V53.6836V50.6836H678.971V53.6836ZM712.77 53.6836H715.77V19.8848H712.77H709.77V53.6836H712.77ZM712.77 19.8848V16.8848H678.971V19.8848V22.8848H712.77V19.8848ZM678.971 19.8848H675.971V53.6836H678.971H681.971V19.8848H678.971Z" fill="white" mask="url(#path-4-outside-2_3_290)"/>
</g>
<defs>
<filter id="filter0_g_3_290" x="4.63086" y="6" width="742.455" height="182.598" filterUnits="userSpaceOnUse" color-interpolation-filters="sRGB">
<feFlood flood-opacity="0" result="BackgroundImageFix"/>
<feBlend mode="normal" in="SourceGraphic" in2="BackgroundImageFix" result="shape"/>
<feTurbulence type="fractalNoise" baseFrequency="10 10" numOctaves="3" seed="5602" />
<feDisplacementMap in="shape" scale="10" xChannelSelector="R" yChannelSelector="G" result="displacedImage" width="100%" height="100%" />
<feMerge result="effect1_texture_3_290">
<feMergeNode in="displacedImage"/>
</feMerge>
</filter>
<filter id="filter1_n_3_290" x="51.2803" y="99" width="629.525" height="73.5967" filterUnits="userSpaceOnUse" color-interpolation-filters="sRGB">
<feFlood flood-opacity="0" result="BackgroundImageFix"/>
<feBlend mode="normal" in="SourceGraphic" in2="BackgroundImageFix" result="shape"/>
<feTurbulence type="fractalNoise" baseFrequency="10 10" stitchTiles="stitch" numOctaves="3" result="noise" seed="5560" />
<feColorMatrix in="noise" type="luminanceToAlpha" result="alphaNoise" />
<feComponentTransfer in="alphaNoise" result="coloredNoise1">
<feFuncA type="discrete" tableValues="0 0 0 0 0 0 0 0 0 1 1 1 1 1 1 1 1 1 1 1 1 1 1 1 1 1 1 1 1 1 1 1 1 1 1 1 1 1 1 1 1 1 0 0 0 0 0 0 0 0 0 0 0 0 0 0 0 0 0 0 0 0 0 0 0 0 0 0 0 0 0 0 0 0 0 0 0 0 0 0 0 0 0 0 0 0 0 0 0 0 0 0 0 0 0 0 0 0 0 0 "/>
</feComponentTransfer>
<feComposite operator="in" in2="shape" in="coloredNoise1" result="noise1Clipped" />
<feFlood flood-color="rgba(0, 0, 0, 0.25)" result="color1Flood" />
<feComposite operator="in" in2="noise1Clipped" in="color1Flood" result="color1" />
<feMerge result="effect1_noise_3_290">
<feMergeNode in="shape" />
<feMergeNode in="color1" />
</feMerge>
</filter>
<filter id="filter2_n_3_290" x="0" y="0.568359" width="732.086" height="72.4316" filterUnits="userSpaceOnUse" color-interpolation-filters="sRGB">
<feFlood flood-opacity="0" result="BackgroundImageFix"/>
<feBlend mode="normal" in="SourceGraphic" in2="BackgroundImageFix" result="shape"/>
<feTurbulence type="fractalNoise" baseFrequency="10 10" stitchTiles="stitch" numOctaves="3" result="noise" seed="5560" />
<feColorMatrix in="noise" type="luminanceToAlpha" result="alphaNoise" />
<feComponentTransfer in="alphaNoise" result="coloredNoise1">
<feFuncA type="discrete" tableValues="0 0 0 0 0 0 0 0 0 1 1 1 1 1 1 1 1 1 1 1 1 1 1 1 1 1 1 1 1 1 1 1 1 1 1 1 1 1 1 1 1 1 0 0 0 0 0 0 0 0 0 0 0 0 0 0 0 0 0 0 0 0 0 0 0 0 0 0 0 0 0 0 0 0 0 0 0 0 0 0 0 0 0 0 0 0 0 0 0 0 0 0 0 0 0 0 0 0 0 0 "/>
</feComponentTransfer>
<feComposite operator="in" in2="shape" in="coloredNoise1" result="noise1Clipped" />
<feFlood flood-color="rgba(0, 0, 0, 0.25)" result="color1Flood" />
<feComposite operator="in" in2="noise1Clipped" in="color1Flood" result="color1" />
<feMerge result="effect1_noise_3_290">
<feMergeNode in="shape" />
<feMergeNode in="color1" />
</feMerge>
</filter>
<linearGradient id="paint0_linear_3_290" x1="88" y1="102" x2="90" y2="170" gradientUnits="userSpaceOnUse">
<stop stop-color="#7F31D5"/>
<stop offset="1" stop-color="#F858DE"/>
</linearGradient>
<linearGradient id="paint1_linear_3_290" x1="445.893" y1="3.56836" x2="445.862" y2="70" gradientUnits="userSpaceOnUse">
<stop offset="0.00724462" stop-color="#7F31D5"/>
<stop offset="1" stop-color="#F858DE"/>
</linearGradient>
</defs>
</svg>
