<svg width="225" height="224" viewBox="0 0 225 224" fill="none" xmlns="http://www.w3.org/2000/svg">
<path d="M225 224H209V208H193V192H177V208H160V224H128V192H97V224H65V208H48V192H32V208H16V224H0V96H16V64H32V32H48V16H80V0H145V16H177V32H193V64H209V96H225V224Z" fill="#FC3849"/>
<path d="M113 112H81V80H113V112Z" fill="#15476B"/>
<path d="M97 64H113V81H81V112H97V128H64V112H48V64H64V48H97V64ZM209 81H177V112H193V128H160V112H144V64H160V48H193V64H209V81Z" fill="white"/>
<path d="M209 112H177V80H209V112Z" fill="#15476B"/>
</svg>
