<svg width="225" height="224" viewBox="0 0 225 224" fill="none" xmlns="http://www.w3.org/2000/svg">
<path d="M80 0V16H48V32H32V48H16V96H0V224H16V208H32V192H48V208H65V224H97V192H128V224H160V208H177V192H193V208H209V224H225V96H209V48H193V32H177V16H145V0H80Z" fill="#FFC832"/>
<path d="M113 112H81V80H113V112Z" fill="#15476B"/>
<path d="M97 64H113V81H81V112H97V128H64V112H48V64H64V48H97V64ZM209 81H177V112H193V128H160V112H144V64H160V48H193V64H209V81Z" fill="white"/>
<path d="M209 112H177V80H209V112Z" fill="#15476B"/>
</svg>
