<svg width="225" height="224" viewBox="0 0 225 224" fill="none" xmlns="http://www.w3.org/2000/svg">
<path d="M0 224H16V208H32V192H48V208H65V224H97V192H128V224H160V208H177V192H193V208H209V224H225V96H209V64H193V32H177V16H145V0H80V16H48V32H32V64H16V96H0V224Z" fill="#FFDFDC"/>
<path d="M112 112H144V80H112V112Z" fill="#15476B"/>
<path d="M128 64H112V81H144V112H128V128H161V112H177V64H161V48H128V64ZM16 81H48V112H32V128H65V112H81V64H65V48H32V64H16V81Z" fill="white"/>
<path d="M16 112H48V80H16V112Z" fill="#15476B"/>
</svg>
