<svg width="225" height="224" viewBox="0 0 225 224" fill="none" xmlns="http://www.w3.org/2000/svg">
<path d="M145 0V16H177V32H193V48H209V96H225V224H209V208H193V192H177V208H160V224H128V192H97V224H65V208H48V192H32V208H16V224H0V96H16V48H32V32H48V16H80V0H145Z" fill="#52FFDD"/>
<path d="M112 112H144V80H112V112Z" fill="#15476B"/>
<path d="M128 64H112V81H144V112H128V128H161V112H177V64H161V48H128V64ZM16 81H48V112H32V128H65V112H81V64H65V48H32V64H16V81Z" fill="white"/>
<path d="M16 112H48V80H16V112Z" fill="#15476B"/>
</svg>
